<?xml version="1.0" encoding="utf-8"?>
<!-- Generator: Adobe Illustrator 27.1.0, SVG Export Plug-In . SVG Version: 6.00 Build 0)  -->
<svg version="1.1" baseProfile="tiny" id="Capa_1" xmlns="http://www.w3.org/2000/svg" xmlns:xlink="http://www.w3.org/1999/xlink"
	 x="0px" y="0px" viewBox="0 0 500 820" overflow="visible" xml:space="preserve">
<g transform="matrix(19.5417,0,0,19.5417,-7889.1,-9807.44)">
	<path fill-rule="evenodd" fill="#CC8500" d="M416.5,503.4c-6.8,0-12.5,5.9-12.5,12.3c0,2.9,1.6,6.6,2.8,9.1l9.7,18.6l9.6-18.6
		c1.2-2.5,2.8-6,2.8-9.1C429,509.3,423.4,503.4,416.5,503.4z M416.5,510.8c2.7,0,4.9,2.2,4.9,4.9s-2.2,4.8-4.9,4.9
		c-2.7,0-4.9-2.2-4.9-4.9C411.7,513.1,413.9,510.9,416.5,510.8z"/>
</g>
</svg>
